<mxfile host="app.diagrams.net" modified="2024-01-30T15:32:01.848Z" agent="Mozilla/5.0 (Windows NT 10.0; Win64; x64) AppleWebKit/537.36 (KHTML, like Gecko) Chrome/120.0.0.0 Safari/537.36" etag="z6j0WFMJlU4UwVlpen2X" version="23.0.2" type="device">
  <diagram name="Page-1" id="gUIZ0pnjqVq9feriwKgx">
    <mxGraphModel dx="1233" dy="614" grid="1" gridSize="10" guides="1" tooltips="1" connect="1" arrows="1" fold="1" page="1" pageScale="1" pageWidth="850" pageHeight="1100" math="0" shadow="0">
      <root>
        <mxCell id="0" />
        <mxCell id="1" parent="0" />
        <mxCell id="SyAGUbuVpS4v2hhUYQQe-101" value="Class User" style="swimlane;fontStyle=0;childLayout=stackLayout;horizontal=1;startSize=20;fillColor=none;horizontalStack=0;resizeParent=1;resizeParentMax=0;resizeLast=0;collapsible=1;marginBottom=0;whiteSpace=wrap;html=1;aspect=fixed;" vertex="1" parent="1">
          <mxGeometry x="40" y="520" width="210" height="254" as="geometry" />
        </mxCell>
        <mxCell id="SyAGUbuVpS4v2hhUYQQe-102" value="First Name(String)" style="text;strokeColor=none;fillColor=none;align=left;verticalAlign=top;spacingLeft=4;spacingRight=4;overflow=hidden;rotatable=0;points=[[0,0.5],[1,0.5]];portConstraint=eastwest;whiteSpace=wrap;html=1;" vertex="1" parent="SyAGUbuVpS4v2hhUYQQe-101">
          <mxGeometry y="20" width="210" height="26" as="geometry" />
        </mxCell>
        <mxCell id="SyAGUbuVpS4v2hhUYQQe-103" value="Last Name(String)" style="text;strokeColor=none;fillColor=none;align=left;verticalAlign=top;spacingLeft=4;spacingRight=4;overflow=hidden;rotatable=0;points=[[0,0.5],[1,0.5]];portConstraint=eastwest;whiteSpace=wrap;html=1;" vertex="1" parent="SyAGUbuVpS4v2hhUYQQe-101">
          <mxGeometry y="46" width="210" height="26" as="geometry" />
        </mxCell>
        <mxCell id="SyAGUbuVpS4v2hhUYQQe-104" value="Phone No(Long)" style="text;strokeColor=none;fillColor=none;align=left;verticalAlign=top;spacingLeft=4;spacingRight=4;overflow=hidden;rotatable=0;points=[[0,0.5],[1,0.5]];portConstraint=eastwest;whiteSpace=wrap;html=1;" vertex="1" parent="SyAGUbuVpS4v2hhUYQQe-101">
          <mxGeometry y="72" width="210" height="26" as="geometry" />
        </mxCell>
        <mxCell id="SyAGUbuVpS4v2hhUYQQe-105" value="Date of Birth (Local Date)" style="text;strokeColor=none;fillColor=none;align=left;verticalAlign=top;spacingLeft=4;spacingRight=4;overflow=hidden;rotatable=0;points=[[0,0.5],[1,0.5]];portConstraint=eastwest;whiteSpace=wrap;html=1;" vertex="1" parent="SyAGUbuVpS4v2hhUYQQe-101">
          <mxGeometry y="98" width="210" height="26" as="geometry" />
        </mxCell>
        <mxCell id="SyAGUbuVpS4v2hhUYQQe-106" value="Address (String)" style="text;strokeColor=none;fillColor=none;align=left;verticalAlign=top;spacingLeft=4;spacingRight=4;overflow=hidden;rotatable=0;points=[[0,0.5],[1,0.5]];portConstraint=eastwest;whiteSpace=wrap;html=1;" vertex="1" parent="SyAGUbuVpS4v2hhUYQQe-101">
          <mxGeometry y="124" width="210" height="26" as="geometry" />
        </mxCell>
        <mxCell id="SyAGUbuVpS4v2hhUYQQe-107" value="User ID (Int)" style="text;strokeColor=none;fillColor=none;align=left;verticalAlign=top;spacingLeft=4;spacingRight=4;overflow=hidden;rotatable=0;points=[[0,0.5],[1,0.5]];portConstraint=eastwest;whiteSpace=wrap;html=1;" vertex="1" parent="SyAGUbuVpS4v2hhUYQQe-101">
          <mxGeometry y="150" width="210" height="26" as="geometry" />
        </mxCell>
        <mxCell id="SyAGUbuVpS4v2hhUYQQe-108" value="Password(Char[ ])" style="text;strokeColor=none;fillColor=none;align=left;verticalAlign=top;spacingLeft=4;spacingRight=4;overflow=hidden;rotatable=0;points=[[0,0.5],[1,0.5]];portConstraint=eastwest;whiteSpace=wrap;html=1;" vertex="1" parent="SyAGUbuVpS4v2hhUYQQe-101">
          <mxGeometry y="176" width="210" height="26" as="geometry" />
        </mxCell>
        <mxCell id="SyAGUbuVpS4v2hhUYQQe-109" value="Payment Account [ ]" style="text;strokeColor=none;fillColor=none;align=left;verticalAlign=top;spacingLeft=4;spacingRight=4;overflow=hidden;rotatable=0;points=[[0,0.5],[1,0.5]];portConstraint=eastwest;whiteSpace=wrap;html=1;" vertex="1" parent="SyAGUbuVpS4v2hhUYQQe-101">
          <mxGeometry y="202" width="210" height="26" as="geometry" />
        </mxCell>
        <mxCell id="SyAGUbuVpS4v2hhUYQQe-110" value="Bank Account [ ]" style="text;strokeColor=none;fillColor=none;align=left;verticalAlign=top;spacingLeft=4;spacingRight=4;overflow=hidden;rotatable=0;points=[[0,0.5],[1,0.5]];portConstraint=eastwest;whiteSpace=wrap;html=1;" vertex="1" parent="SyAGUbuVpS4v2hhUYQQe-101">
          <mxGeometry y="228" width="210" height="26" as="geometry" />
        </mxCell>
        <mxCell id="SyAGUbuVpS4v2hhUYQQe-5" value="&lt;br&gt;&lt;br&gt;User" style="shape=actor;whiteSpace=wrap;html=1;" vertex="1" parent="1">
          <mxGeometry x="130" y="205" width="50" height="80" as="geometry" />
        </mxCell>
        <mxCell id="SyAGUbuVpS4v2hhUYQQe-8" value="Create Account&amp;nbsp;/&lt;br&gt;Self Register" style="ellipse;whiteSpace=wrap;html=1;" vertex="1" parent="1">
          <mxGeometry x="250" y="50" width="120" height="50" as="geometry" />
        </mxCell>
        <mxCell id="SyAGUbuVpS4v2hhUYQQe-9" value="Adding &lt;br&gt;Bank Account&amp;nbsp;" style="ellipse;whiteSpace=wrap;html=1;" vertex="1" parent="1">
          <mxGeometry x="250" y="110" width="120" height="50" as="geometry" />
        </mxCell>
        <mxCell id="SyAGUbuVpS4v2hhUYQQe-10" value="Adding Money to&amp;nbsp;&lt;br&gt;Wallet" style="ellipse;whiteSpace=wrap;html=1;" vertex="1" parent="1">
          <mxGeometry x="250" y="170" width="120" height="50" as="geometry" />
        </mxCell>
        <mxCell id="SyAGUbuVpS4v2hhUYQQe-11" value="Send Money /&amp;nbsp;&lt;br&gt;First Transaction" style="ellipse;whiteSpace=wrap;html=1;" vertex="1" parent="1">
          <mxGeometry x="250" y="235" width="120" height="50" as="geometry" />
        </mxCell>
        <mxCell id="SyAGUbuVpS4v2hhUYQQe-13" value="Send Money" style="whiteSpace=wrap;html=1;rounded=1;arcSize=50;align=center;verticalAlign=middle;strokeWidth=1;autosize=1;spacing=4;treeFolding=1;treeMoving=1;newEdgeStyle={&quot;edgeStyle&quot;:&quot;entityRelationEdgeStyle&quot;,&quot;startArrow&quot;:&quot;none&quot;,&quot;endArrow&quot;:&quot;none&quot;,&quot;segment&quot;:10,&quot;curved&quot;:1,&quot;sourcePerimeterSpacing&quot;:0,&quot;targetPerimeterSpacing&quot;:0};" vertex="1" parent="1">
          <mxGeometry x="420" y="230" width="150" height="30" as="geometry" />
        </mxCell>
        <mxCell id="SyAGUbuVpS4v2hhUYQQe-14" value="" style="edgeStyle=entityRelationEdgeStyle;startArrow=none;endArrow=none;segment=10;curved=1;sourcePerimeterSpacing=0;targetPerimeterSpacing=0;rounded=0;" edge="1" target="SyAGUbuVpS4v2hhUYQQe-13" parent="1" source="SyAGUbuVpS4v2hhUYQQe-11">
          <mxGeometry relative="1" as="geometry">
            <mxPoint x="380" y="242" as="sourcePoint" />
            <Array as="points">
              <mxPoint x="360" y="250" />
            </Array>
          </mxGeometry>
        </mxCell>
        <mxCell id="SyAGUbuVpS4v2hhUYQQe-15" value="Recieve Money" style="whiteSpace=wrap;html=1;rounded=1;arcSize=50;align=center;verticalAlign=middle;strokeWidth=1;autosize=1;spacing=4;treeFolding=1;treeMoving=1;newEdgeStyle={&quot;edgeStyle&quot;:&quot;entityRelationEdgeStyle&quot;,&quot;startArrow&quot;:&quot;none&quot;,&quot;endArrow&quot;:&quot;none&quot;,&quot;segment&quot;:10,&quot;curved&quot;:1,&quot;sourcePerimeterSpacing&quot;:0,&quot;targetPerimeterSpacing&quot;:0};" vertex="1" parent="1">
          <mxGeometry x="420" y="270" width="150" height="30" as="geometry" />
        </mxCell>
        <mxCell id="SyAGUbuVpS4v2hhUYQQe-16" value="" style="edgeStyle=entityRelationEdgeStyle;startArrow=none;endArrow=none;segment=10;curved=1;sourcePerimeterSpacing=0;targetPerimeterSpacing=0;rounded=0;exitX=1;exitY=0.5;exitDx=0;exitDy=0;" edge="1" target="SyAGUbuVpS4v2hhUYQQe-15" parent="1" source="SyAGUbuVpS4v2hhUYQQe-11">
          <mxGeometry relative="1" as="geometry">
            <mxPoint x="370" y="270" as="sourcePoint" />
          </mxGeometry>
        </mxCell>
        <mxCell id="SyAGUbuVpS4v2hhUYQQe-19" value="Bank Account To Wallet" style="whiteSpace=wrap;html=1;rounded=1;arcSize=50;align=center;verticalAlign=middle;strokeWidth=1;autosize=1;spacing=4;treeFolding=1;treeMoving=1;newEdgeStyle={&quot;edgeStyle&quot;:&quot;entityRelationEdgeStyle&quot;,&quot;startArrow&quot;:&quot;none&quot;,&quot;endArrow&quot;:&quot;none&quot;,&quot;segment&quot;:10,&quot;curved&quot;:1,&quot;sourcePerimeterSpacing&quot;:0,&quot;targetPerimeterSpacing&quot;:0};" vertex="1" parent="1">
          <mxGeometry x="420" y="150" width="150" height="30" as="geometry" />
        </mxCell>
        <mxCell id="SyAGUbuVpS4v2hhUYQQe-20" value="" style="edgeStyle=entityRelationEdgeStyle;startArrow=none;endArrow=none;segment=10;curved=1;sourcePerimeterSpacing=0;targetPerimeterSpacing=0;rounded=0;" edge="1" target="SyAGUbuVpS4v2hhUYQQe-19" parent="1" source="SyAGUbuVpS4v2hhUYQQe-10">
          <mxGeometry relative="1" as="geometry">
            <mxPoint x="370" y="192" as="sourcePoint" />
          </mxGeometry>
        </mxCell>
        <mxCell id="SyAGUbuVpS4v2hhUYQQe-23" value="Wallet To Bank Account" style="whiteSpace=wrap;html=1;rounded=1;arcSize=50;align=center;verticalAlign=middle;strokeWidth=1;autosize=1;spacing=4;treeFolding=1;treeMoving=1;newEdgeStyle={&quot;edgeStyle&quot;:&quot;entityRelationEdgeStyle&quot;,&quot;startArrow&quot;:&quot;none&quot;,&quot;endArrow&quot;:&quot;none&quot;,&quot;segment&quot;:10,&quot;curved&quot;:1,&quot;sourcePerimeterSpacing&quot;:0,&quot;targetPerimeterSpacing&quot;:0};" vertex="1" parent="1">
          <mxGeometry x="420" y="188" width="150" height="30" as="geometry" />
        </mxCell>
        <mxCell id="SyAGUbuVpS4v2hhUYQQe-24" value="" style="edgeStyle=entityRelationEdgeStyle;startArrow=none;endArrow=none;segment=10;curved=1;sourcePerimeterSpacing=0;targetPerimeterSpacing=0;rounded=0;exitX=0.947;exitY=0.673;exitDx=0;exitDy=0;exitPerimeter=0;" edge="1" target="SyAGUbuVpS4v2hhUYQQe-23" parent="1" source="SyAGUbuVpS4v2hhUYQQe-10">
          <mxGeometry relative="1" as="geometry">
            <mxPoint x="400" y="230" as="sourcePoint" />
          </mxGeometry>
        </mxCell>
        <mxCell id="SyAGUbuVpS4v2hhUYQQe-28" value="Bank Account to Wallet" style="whiteSpace=wrap;html=1;rounded=1;arcSize=50;align=center;verticalAlign=middle;strokeWidth=1;autosize=1;spacing=4;treeFolding=1;treeMoving=1;newEdgeStyle={&quot;edgeStyle&quot;:&quot;entityRelationEdgeStyle&quot;,&quot;startArrow&quot;:&quot;none&quot;,&quot;endArrow&quot;:&quot;none&quot;,&quot;segment&quot;:10,&quot;curved&quot;:1,&quot;sourcePerimeterSpacing&quot;:0,&quot;targetPerimeterSpacing&quot;:0};fontSize=8;" vertex="1" parent="1">
          <mxGeometry x="650" y="191" width="92" height="19" as="geometry" />
        </mxCell>
        <mxCell id="SyAGUbuVpS4v2hhUYQQe-29" value="&lt;div style=&quot;text-align: justify;&quot;&gt;&lt;span style=&quot;font-size: 8px; background-color: initial;&quot;&gt;Wallet to Bank Account&lt;/span&gt;&lt;/div&gt;" style="whiteSpace=wrap;html=1;rounded=1;arcSize=50;align=center;verticalAlign=middle;strokeWidth=1;autosize=1;spacing=4;treeFolding=1;treeMoving=1;newEdgeStyle={&quot;edgeStyle&quot;:&quot;entityRelationEdgeStyle&quot;,&quot;startArrow&quot;:&quot;none&quot;,&quot;endArrow&quot;:&quot;none&quot;,&quot;segment&quot;:10,&quot;curved&quot;:1,&quot;sourcePerimeterSpacing&quot;:0,&quot;targetPerimeterSpacing&quot;:0};" vertex="1" parent="1">
          <mxGeometry x="650" y="215" width="91" height="25" as="geometry" />
        </mxCell>
        <mxCell id="SyAGUbuVpS4v2hhUYQQe-32" value="" style="edgeStyle=entityRelationEdgeStyle;startArrow=none;endArrow=none;segment=10;curved=1;sourcePerimeterSpacing=0;targetPerimeterSpacing=0;rounded=0;entryX=0;entryY=0.655;entryDx=0;entryDy=0;entryPerimeter=0;" edge="1" target="SyAGUbuVpS4v2hhUYQQe-28" parent="1" source="SyAGUbuVpS4v2hhUYQQe-13">
          <mxGeometry relative="1" as="geometry">
            <mxPoint x="570" y="241" as="sourcePoint" />
            <mxPoint x="610" y="210.2" as="targetPoint" />
          </mxGeometry>
        </mxCell>
        <mxCell id="SyAGUbuVpS4v2hhUYQQe-34" value="" style="whiteSpace=wrap;html=1;shape=partialRectangle;top=0;left=0;bottom=1;right=0;points=[[0,1],[1,1]];fillColor=none;align=center;verticalAlign=bottom;routingCenterY=0.5;snapToPoint=1;recursiveResize=0;autosize=1;treeFolding=1;treeMoving=1;newEdgeStyle={&quot;edgeStyle&quot;:&quot;entityRelationEdgeStyle&quot;,&quot;startArrow&quot;:&quot;none&quot;,&quot;endArrow&quot;:&quot;none&quot;,&quot;segment&quot;:10,&quot;curved&quot;:1,&quot;sourcePerimeterSpacing&quot;:0,&quot;targetPerimeterSpacing&quot;:0};" vertex="1" parent="1">
          <mxGeometry x="630" y="200" width="20" height="30" as="geometry" />
        </mxCell>
        <mxCell id="SyAGUbuVpS4v2hhUYQQe-35" value="" style="edgeStyle=entityRelationEdgeStyle;startArrow=none;endArrow=none;segment=10;curved=1;sourcePerimeterSpacing=0;targetPerimeterSpacing=0;rounded=0;" edge="1" target="SyAGUbuVpS4v2hhUYQQe-34" parent="1">
          <mxGeometry relative="1" as="geometry">
            <mxPoint x="570" y="250" as="sourcePoint" />
          </mxGeometry>
        </mxCell>
        <mxCell id="SyAGUbuVpS4v2hhUYQQe-38" value="&lt;p style=&quot;line-height: 100%;&quot;&gt;&lt;span style=&quot;font-size: 7px;&quot;&gt;Bank Account + wallet to Bank Account&lt;/span&gt;&lt;/p&gt;" style="whiteSpace=wrap;html=1;rounded=1;arcSize=50;align=center;verticalAlign=middle;strokeWidth=1;autosize=1;spacing=4;treeFolding=1;treeMoving=1;newEdgeStyle={&quot;edgeStyle&quot;:&quot;entityRelationEdgeStyle&quot;,&quot;startArrow&quot;:&quot;none&quot;,&quot;endArrow&quot;:&quot;none&quot;,&quot;segment&quot;:10,&quot;curved&quot;:1,&quot;sourcePerimeterSpacing&quot;:0,&quot;targetPerimeterSpacing&quot;:0};" vertex="1" parent="1">
          <mxGeometry x="650" y="245" width="90" height="30" as="geometry" />
        </mxCell>
        <mxCell id="SyAGUbuVpS4v2hhUYQQe-39" value="" style="edgeStyle=entityRelationEdgeStyle;startArrow=none;endArrow=none;segment=10;curved=1;sourcePerimeterSpacing=0;targetPerimeterSpacing=0;rounded=0;" edge="1" target="SyAGUbuVpS4v2hhUYQQe-38" parent="1">
          <mxGeometry relative="1" as="geometry">
            <mxPoint x="570" y="250" as="sourcePoint" />
            <Array as="points">
              <mxPoint x="610" y="250" />
              <mxPoint x="620" y="250" />
              <mxPoint x="630" y="260" />
              <mxPoint x="640" y="250" />
              <mxPoint x="620" y="250" />
              <mxPoint x="620" y="250" />
            </Array>
          </mxGeometry>
        </mxCell>
        <mxCell id="SyAGUbuVpS4v2hhUYQQe-40" value="" style="endArrow=classic;html=1;rounded=0;exitX=0.9;exitY=0.5;exitDx=0;exitDy=0;exitPerimeter=0;" edge="1" parent="1">
          <mxGeometry width="50" height="50" relative="1" as="geometry">
            <mxPoint x="170" y="240" as="sourcePoint" />
            <mxPoint x="245" y="75" as="targetPoint" />
          </mxGeometry>
        </mxCell>
        <mxCell id="SyAGUbuVpS4v2hhUYQQe-42" value="" style="endArrow=classic;html=1;rounded=0;exitX=0.785;exitY=0.386;exitDx=0;exitDy=0;exitPerimeter=0;" edge="1" parent="1">
          <mxGeometry width="50" height="50" relative="1" as="geometry">
            <mxPoint x="173.2499999999999" y="243" as="sourcePoint" />
            <mxPoint x="254" y="148.12" as="targetPoint" />
          </mxGeometry>
        </mxCell>
        <mxCell id="SyAGUbuVpS4v2hhUYQQe-44" value="" style="endArrow=classic;html=1;rounded=0;exitX=0.917;exitY=0.441;exitDx=0;exitDy=0;exitPerimeter=0;" edge="1" parent="1">
          <mxGeometry width="50" height="50" relative="1" as="geometry">
            <mxPoint x="180.00000000000003" y="250.14" as="sourcePoint" />
            <mxPoint x="254.15" y="204.86" as="targetPoint" />
          </mxGeometry>
        </mxCell>
        <mxCell id="SyAGUbuVpS4v2hhUYQQe-45" value="" style="endArrow=classic;html=1;rounded=0;exitX=1;exitY=0.688;exitDx=0;exitDy=0;exitPerimeter=0;" edge="1" parent="1" source="SyAGUbuVpS4v2hhUYQQe-5">
          <mxGeometry width="50" height="50" relative="1" as="geometry">
            <mxPoint x="190" y="260" as="sourcePoint" />
            <mxPoint x="240" y="260" as="targetPoint" />
          </mxGeometry>
        </mxCell>
        <mxCell id="SyAGUbuVpS4v2hhUYQQe-46" value="Transaction Statement" style="ellipse;whiteSpace=wrap;html=1;" vertex="1" parent="1">
          <mxGeometry x="250" y="310" width="120" height="50" as="geometry" />
        </mxCell>
        <mxCell id="SyAGUbuVpS4v2hhUYQQe-48" value="" style="endArrow=none;dashed=1;html=1;rounded=0;exitX=0.5;exitY=0;exitDx=0;exitDy=0;" edge="1" parent="1" source="SyAGUbuVpS4v2hhUYQQe-9">
          <mxGeometry width="50" height="50" relative="1" as="geometry">
            <mxPoint x="270" y="150" as="sourcePoint" />
            <mxPoint x="320" y="100" as="targetPoint" />
          </mxGeometry>
        </mxCell>
        <mxCell id="SyAGUbuVpS4v2hhUYQQe-49" value="" style="endArrow=none;dashed=1;html=1;dashPattern=1 3;strokeWidth=2;rounded=0;exitX=0.5;exitY=0;exitDx=0;exitDy=0;" edge="1" parent="1" source="SyAGUbuVpS4v2hhUYQQe-11">
          <mxGeometry width="50" height="50" relative="1" as="geometry">
            <mxPoint x="260" y="270" as="sourcePoint" />
            <mxPoint x="310" y="220" as="targetPoint" />
          </mxGeometry>
        </mxCell>
        <mxCell id="SyAGUbuVpS4v2hhUYQQe-50" value="" style="endArrow=none;dashed=1;html=1;dashPattern=1 3;strokeWidth=2;rounded=0;exitX=0.5;exitY=0;exitDx=0;exitDy=0;" edge="1" parent="1" source="SyAGUbuVpS4v2hhUYQQe-10">
          <mxGeometry width="50" height="50" relative="1" as="geometry">
            <mxPoint x="270" y="205" as="sourcePoint" />
            <mxPoint x="320" y="155" as="targetPoint" />
          </mxGeometry>
        </mxCell>
        <mxCell id="SyAGUbuVpS4v2hhUYQQe-53" value="" style="endArrow=none;dashed=1;html=1;dashPattern=1 3;strokeWidth=2;rounded=0;" edge="1" parent="1" source="SyAGUbuVpS4v2hhUYQQe-46">
          <mxGeometry width="50" height="50" relative="1" as="geometry">
            <mxPoint x="270" y="335" as="sourcePoint" />
            <mxPoint x="320" y="285" as="targetPoint" />
          </mxGeometry>
        </mxCell>
        <mxCell id="SyAGUbuVpS4v2hhUYQQe-56" value="Success" style="whiteSpace=wrap;html=1;rounded=1;arcSize=50;align=center;verticalAlign=middle;strokeWidth=1;autosize=1;spacing=4;treeFolding=1;treeMoving=1;newEdgeStyle={&quot;edgeStyle&quot;:&quot;entityRelationEdgeStyle&quot;,&quot;startArrow&quot;:&quot;none&quot;,&quot;endArrow&quot;:&quot;none&quot;,&quot;segment&quot;:10,&quot;curved&quot;:1,&quot;sourcePerimeterSpacing&quot;:0,&quot;targetPerimeterSpacing&quot;:0};" vertex="1" parent="1">
          <mxGeometry x="425" y="310" width="75" height="20" as="geometry" />
        </mxCell>
        <mxCell id="SyAGUbuVpS4v2hhUYQQe-57" value="" style="edgeStyle=entityRelationEdgeStyle;startArrow=none;endArrow=none;segment=10;curved=1;sourcePerimeterSpacing=0;targetPerimeterSpacing=0;rounded=0;exitX=1;exitY=0.5;exitDx=0;exitDy=0;" edge="1" target="SyAGUbuVpS4v2hhUYQQe-56" parent="1" source="SyAGUbuVpS4v2hhUYQQe-46">
          <mxGeometry relative="1" as="geometry">
            <mxPoint x="390" y="345" as="sourcePoint" />
          </mxGeometry>
        </mxCell>
        <mxCell id="SyAGUbuVpS4v2hhUYQQe-60" value="Process" style="whiteSpace=wrap;html=1;rounded=1;arcSize=50;align=center;verticalAlign=middle;strokeWidth=1;autosize=1;spacing=4;treeFolding=1;treeMoving=1;newEdgeStyle={&quot;edgeStyle&quot;:&quot;entityRelationEdgeStyle&quot;,&quot;startArrow&quot;:&quot;none&quot;,&quot;endArrow&quot;:&quot;none&quot;,&quot;segment&quot;:10,&quot;curved&quot;:1,&quot;sourcePerimeterSpacing&quot;:0,&quot;targetPerimeterSpacing&quot;:0};" vertex="1" parent="1">
          <mxGeometry x="415" y="335" width="75" height="25" as="geometry" />
        </mxCell>
        <mxCell id="SyAGUbuVpS4v2hhUYQQe-61" value="" style="edgeStyle=entityRelationEdgeStyle;startArrow=none;endArrow=none;segment=10;curved=1;sourcePerimeterSpacing=0;targetPerimeterSpacing=0;rounded=0;" edge="1" target="SyAGUbuVpS4v2hhUYQQe-60" parent="1" source="SyAGUbuVpS4v2hhUYQQe-46">
          <mxGeometry relative="1" as="geometry">
            <mxPoint x="380" y="372" as="sourcePoint" />
          </mxGeometry>
        </mxCell>
        <mxCell id="SyAGUbuVpS4v2hhUYQQe-62" value="Failed" style="whiteSpace=wrap;html=1;rounded=1;arcSize=50;align=center;verticalAlign=middle;strokeWidth=1;autosize=1;spacing=4;treeFolding=1;treeMoving=1;newEdgeStyle={&quot;edgeStyle&quot;:&quot;entityRelationEdgeStyle&quot;,&quot;startArrow&quot;:&quot;none&quot;,&quot;endArrow&quot;:&quot;none&quot;,&quot;segment&quot;:10,&quot;curved&quot;:1,&quot;sourcePerimeterSpacing&quot;:0,&quot;targetPerimeterSpacing&quot;:0};" vertex="1" parent="1">
          <mxGeometry x="640" y="335" width="60" height="25" as="geometry" />
        </mxCell>
        <mxCell id="SyAGUbuVpS4v2hhUYQQe-63" value="" style="edgeStyle=entityRelationEdgeStyle;startArrow=none;endArrow=none;segment=10;curved=1;sourcePerimeterSpacing=0;targetPerimeterSpacing=0;rounded=0;exitX=1;exitY=0.5;exitDx=0;exitDy=0;" edge="1" target="SyAGUbuVpS4v2hhUYQQe-62" parent="1" source="SyAGUbuVpS4v2hhUYQQe-60">
          <mxGeometry relative="1" as="geometry">
            <mxPoint x="500" y="377" as="sourcePoint" />
          </mxGeometry>
        </mxCell>
        <mxCell id="SyAGUbuVpS4v2hhUYQQe-65" value="" style="endArrow=classic;html=1;rounded=0;entryX=1;entryY=0.75;entryDx=0;entryDy=0;" edge="1" parent="1" target="SyAGUbuVpS4v2hhUYQQe-56">
          <mxGeometry width="50" height="50" relative="1" as="geometry">
            <mxPoint x="490" y="345" as="sourcePoint" />
            <mxPoint x="540" y="295" as="targetPoint" />
            <Array as="points">
              <mxPoint x="560" y="325" />
            </Array>
          </mxGeometry>
        </mxCell>
        <mxCell id="SyAGUbuVpS4v2hhUYQQe-67" value="if Transaction Success" style="edgeLabel;html=1;align=center;verticalAlign=middle;resizable=0;points=[];" vertex="1" connectable="0" parent="SyAGUbuVpS4v2hhUYQQe-65">
          <mxGeometry x="-0.2957" y="-1" relative="1" as="geometry">
            <mxPoint x="73" y="-15" as="offset" />
          </mxGeometry>
        </mxCell>
        <mxCell id="SyAGUbuVpS4v2hhUYQQe-69" value="Refund" style="ellipse;whiteSpace=wrap;html=1;" vertex="1" parent="1">
          <mxGeometry x="250" y="370" width="120" height="50" as="geometry" />
        </mxCell>
        <mxCell id="SyAGUbuVpS4v2hhUYQQe-71" value="" style="endArrow=classic;html=1;rounded=0;" edge="1" parent="1">
          <mxGeometry width="50" height="50" relative="1" as="geometry">
            <mxPoint x="180" y="290" as="sourcePoint" />
            <mxPoint x="250" y="390" as="targetPoint" />
          </mxGeometry>
        </mxCell>
        <mxCell id="SyAGUbuVpS4v2hhUYQQe-72" value="" style="endArrow=classic;html=1;rounded=0;exitX=1.105;exitY=0.862;exitDx=0;exitDy=0;exitPerimeter=0;" edge="1" parent="1" source="SyAGUbuVpS4v2hhUYQQe-5">
          <mxGeometry width="50" height="50" relative="1" as="geometry">
            <mxPoint x="200" y="385" as="sourcePoint" />
            <mxPoint x="250" y="335" as="targetPoint" />
          </mxGeometry>
        </mxCell>
        <mxCell id="SyAGUbuVpS4v2hhUYQQe-73" value="Bank Account To Wallet&lt;br&gt;(Refund return to Wallet Only)" style="whiteSpace=wrap;html=1;rounded=1;arcSize=50;align=center;verticalAlign=middle;strokeWidth=1;autosize=1;spacing=4;treeFolding=1;treeMoving=1;newEdgeStyle={&quot;edgeStyle&quot;:&quot;entityRelationEdgeStyle&quot;,&quot;startArrow&quot;:&quot;none&quot;,&quot;endArrow&quot;:&quot;none&quot;,&quot;segment&quot;:10,&quot;curved&quot;:1,&quot;sourcePerimeterSpacing&quot;:0,&quot;targetPerimeterSpacing&quot;:0};" vertex="1" parent="1">
          <mxGeometry x="417.5" y="380" width="202.5" height="40" as="geometry" />
        </mxCell>
        <mxCell id="SyAGUbuVpS4v2hhUYQQe-74" value="" style="edgeStyle=entityRelationEdgeStyle;startArrow=none;endArrow=none;segment=10;curved=1;sourcePerimeterSpacing=0;targetPerimeterSpacing=0;rounded=0;exitX=1;exitY=0.5;exitDx=0;exitDy=0;" edge="1" target="SyAGUbuVpS4v2hhUYQQe-73" parent="1" source="SyAGUbuVpS4v2hhUYQQe-69">
          <mxGeometry relative="1" as="geometry">
            <mxPoint x="380" y="412" as="sourcePoint" />
          </mxGeometry>
        </mxCell>
        <mxCell id="SyAGUbuVpS4v2hhUYQQe-79" value="If Amount Has Been Debited" style="text;html=1;align=center;verticalAlign=middle;resizable=0;points=[];autosize=1;strokeColor=none;fillColor=none;" vertex="1" parent="1">
          <mxGeometry x="630" y="370" width="170" height="30" as="geometry" />
        </mxCell>
        <mxCell id="SyAGUbuVpS4v2hhUYQQe-80" value="" style="endArrow=classic;html=1;rounded=0;entryX=1;entryY=0.5;entryDx=0;entryDy=0;exitX=0.163;exitY=1.088;exitDx=0;exitDy=0;exitPerimeter=0;" edge="1" parent="1" source="SyAGUbuVpS4v2hhUYQQe-62" target="SyAGUbuVpS4v2hhUYQQe-73">
          <mxGeometry width="50" height="50" relative="1" as="geometry">
            <mxPoint x="645" y="450" as="sourcePoint" />
            <mxPoint x="695" y="400" as="targetPoint" />
          </mxGeometry>
        </mxCell>
        <mxCell id="SyAGUbuVpS4v2hhUYQQe-81" value="Monthly Transactions Statements" style="ellipse;whiteSpace=wrap;html=1;" vertex="1" parent="1">
          <mxGeometry x="255" y="430" width="110" height="50" as="geometry" />
        </mxCell>
        <mxCell id="SyAGUbuVpS4v2hhUYQQe-83" value="" style="endArrow=classic;html=1;rounded=0;" edge="1" parent="1">
          <mxGeometry width="50" height="50" relative="1" as="geometry">
            <mxPoint x="250" y="450" as="sourcePoint" />
            <mxPoint x="160" y="300" as="targetPoint" />
          </mxGeometry>
        </mxCell>
        <mxCell id="SyAGUbuVpS4v2hhUYQQe-86" value="" style="endArrow=classic;html=1;rounded=0;" edge="1" parent="1">
          <mxGeometry width="50" height="50" relative="1" as="geometry">
            <mxPoint x="760" y="460" as="sourcePoint" />
            <mxPoint x="370" y="450" as="targetPoint" />
          </mxGeometry>
        </mxCell>
        <mxCell id="SyAGUbuVpS4v2hhUYQQe-94" value="&lt;br&gt;&lt;br&gt;&lt;br&gt;&lt;br&gt;&lt;br&gt;&lt;br&gt;System" style="shape=actor;whiteSpace=wrap;html=1;" vertex="1" parent="1">
          <mxGeometry x="740" y="420" width="40" height="60" as="geometry" />
        </mxCell>
        <mxCell id="SyAGUbuVpS4v2hhUYQQe-111" value="Class Payments_ Account" style="swimlane;fontStyle=0;childLayout=stackLayout;horizontal=1;startSize=26;fillColor=none;horizontalStack=0;resizeParent=1;resizeParentMax=0;resizeLast=0;collapsible=1;marginBottom=0;whiteSpace=wrap;html=1;" vertex="1" parent="1">
          <mxGeometry x="300" y="520" width="230" height="104" as="geometry" />
        </mxCell>
        <mxCell id="SyAGUbuVpS4v2hhUYQQe-112" value="Payment Account Id (Int)" style="text;strokeColor=none;fillColor=none;align=left;verticalAlign=top;spacingLeft=4;spacingRight=4;overflow=hidden;rotatable=0;points=[[0,0.5],[1,0.5]];portConstraint=eastwest;whiteSpace=wrap;html=1;" vertex="1" parent="SyAGUbuVpS4v2hhUYQQe-111">
          <mxGeometry y="26" width="230" height="26" as="geometry" />
        </mxCell>
        <mxCell id="SyAGUbuVpS4v2hhUYQQe-113" value="Current Wallet Balance (Double)" style="text;strokeColor=none;fillColor=none;align=left;verticalAlign=top;spacingLeft=4;spacingRight=4;overflow=hidden;rotatable=0;points=[[0,0.5],[1,0.5]];portConstraint=eastwest;whiteSpace=wrap;html=1;" vertex="1" parent="SyAGUbuVpS4v2hhUYQQe-111">
          <mxGeometry y="52" width="230" height="26" as="geometry" />
        </mxCell>
        <mxCell id="SyAGUbuVpS4v2hhUYQQe-114" value="User ID (Int)" style="text;strokeColor=none;fillColor=none;align=left;verticalAlign=top;spacingLeft=4;spacingRight=4;overflow=hidden;rotatable=0;points=[[0,0.5],[1,0.5]];portConstraint=eastwest;whiteSpace=wrap;html=1;" vertex="1" parent="SyAGUbuVpS4v2hhUYQQe-111">
          <mxGeometry y="78" width="230" height="26" as="geometry" />
        </mxCell>
        <mxCell id="SyAGUbuVpS4v2hhUYQQe-115" value="Class Bank_Account&amp;nbsp;" style="swimlane;fontStyle=0;childLayout=stackLayout;horizontal=1;startSize=26;fillColor=none;horizontalStack=0;resizeParent=1;resizeParentMax=0;resizeLast=0;collapsible=1;marginBottom=0;whiteSpace=wrap;html=1;" vertex="1" parent="1">
          <mxGeometry x="300" y="640" width="230" height="160" as="geometry" />
        </mxCell>
        <mxCell id="SyAGUbuVpS4v2hhUYQQe-116" value="Bank Account No (Long)" style="text;strokeColor=none;fillColor=none;align=left;verticalAlign=top;spacingLeft=4;spacingRight=4;overflow=hidden;rotatable=0;points=[[0,0.5],[1,0.5]];portConstraint=eastwest;whiteSpace=wrap;html=1;" vertex="1" parent="SyAGUbuVpS4v2hhUYQQe-115">
          <mxGeometry y="26" width="230" height="26" as="geometry" />
        </mxCell>
        <mxCell id="SyAGUbuVpS4v2hhUYQQe-117" value="Bank Account Bank Name (String)" style="text;strokeColor=none;fillColor=none;align=left;verticalAlign=top;spacingLeft=4;spacingRight=4;overflow=hidden;rotatable=0;points=[[0,0.5],[1,0.5]];portConstraint=eastwest;whiteSpace=wrap;html=1;" vertex="1" parent="SyAGUbuVpS4v2hhUYQQe-115">
          <mxGeometry y="52" width="230" height="26" as="geometry" />
        </mxCell>
        <mxCell id="SyAGUbuVpS4v2hhUYQQe-118" value="Bank Account IFSC Code (String)" style="text;strokeColor=none;fillColor=none;align=left;verticalAlign=top;spacingLeft=4;spacingRight=4;overflow=hidden;rotatable=0;points=[[0,0.5],[1,0.5]];portConstraint=eastwest;whiteSpace=wrap;html=1;" vertex="1" parent="SyAGUbuVpS4v2hhUYQQe-115">
          <mxGeometry y="78" width="230" height="26" as="geometry" />
        </mxCell>
        <mxCell id="SyAGUbuVpS4v2hhUYQQe-119" value="Bank Account Account Type (String)" style="text;strokeColor=none;fillColor=none;align=left;verticalAlign=top;spacingLeft=4;spacingRight=4;overflow=hidden;rotatable=0;points=[[0,0.5],[1,0.5]];portConstraint=eastwest;whiteSpace=wrap;html=1;" vertex="1" parent="SyAGUbuVpS4v2hhUYQQe-115">
          <mxGeometry y="104" width="230" height="26" as="geometry" />
        </mxCell>
        <mxCell id="SyAGUbuVpS4v2hhUYQQe-120" value="Bank Account Pin (Int)" style="text;strokeColor=none;fillColor=none;align=left;verticalAlign=top;spacingLeft=4;spacingRight=4;overflow=hidden;rotatable=0;points=[[0,0.5],[1,0.5]];portConstraint=eastwest;whiteSpace=wrap;html=1;" vertex="1" parent="SyAGUbuVpS4v2hhUYQQe-115">
          <mxGeometry y="130" width="230" height="30" as="geometry" />
        </mxCell>
        <mxCell id="SyAGUbuVpS4v2hhUYQQe-122" value="Class Transactions" style="swimlane;fontStyle=0;childLayout=stackLayout;horizontal=1;startSize=26;fillColor=none;horizontalStack=0;resizeParent=1;resizeParentMax=0;resizeLast=0;collapsible=1;marginBottom=0;whiteSpace=wrap;html=1;" vertex="1" parent="1">
          <mxGeometry x="560" y="520" width="230" height="234" as="geometry" />
        </mxCell>
        <mxCell id="SyAGUbuVpS4v2hhUYQQe-123" value="Transaction Id (Long)" style="text;strokeColor=none;fillColor=none;align=left;verticalAlign=top;spacingLeft=4;spacingRight=4;overflow=hidden;rotatable=0;points=[[0,0.5],[1,0.5]];portConstraint=eastwest;whiteSpace=wrap;html=1;" vertex="1" parent="SyAGUbuVpS4v2hhUYQQe-122">
          <mxGeometry y="26" width="230" height="26" as="geometry" />
        </mxCell>
        <mxCell id="SyAGUbuVpS4v2hhUYQQe-124" value="Transaction Date_time (Local Date Time)" style="text;strokeColor=none;fillColor=none;align=left;verticalAlign=top;spacingLeft=4;spacingRight=4;overflow=hidden;rotatable=0;points=[[0,0.5],[1,0.5]];portConstraint=eastwest;whiteSpace=wrap;html=1;" vertex="1" parent="SyAGUbuVpS4v2hhUYQQe-122">
          <mxGeometry y="52" width="230" height="26" as="geometry" />
        </mxCell>
        <mxCell id="SyAGUbuVpS4v2hhUYQQe-125" value="Transaction Amount (Float)" style="text;strokeColor=none;fillColor=none;align=left;verticalAlign=top;spacingLeft=4;spacingRight=4;overflow=hidden;rotatable=0;points=[[0,0.5],[1,0.5]];portConstraint=eastwest;whiteSpace=wrap;html=1;" vertex="1" parent="SyAGUbuVpS4v2hhUYQQe-122">
          <mxGeometry y="78" width="230" height="26" as="geometry" />
        </mxCell>
        <mxCell id="SyAGUbuVpS4v2hhUYQQe-126" value="// Source&amp;nbsp;" style="text;strokeColor=none;fillColor=none;align=left;verticalAlign=top;spacingLeft=4;spacingRight=4;overflow=hidden;rotatable=0;points=[[0,0.5],[1,0.5]];portConstraint=eastwest;whiteSpace=wrap;html=1;" vertex="1" parent="SyAGUbuVpS4v2hhUYQQe-122">
          <mxGeometry y="104" width="230" height="26" as="geometry" />
        </mxCell>
        <mxCell id="SyAGUbuVpS4v2hhUYQQe-127" value="//Destination" style="text;strokeColor=none;fillColor=none;align=left;verticalAlign=top;spacingLeft=4;spacingRight=4;overflow=hidden;rotatable=0;points=[[0,0.5],[1,0.5]];portConstraint=eastwest;whiteSpace=wrap;html=1;" vertex="1" parent="SyAGUbuVpS4v2hhUYQQe-122">
          <mxGeometry y="130" width="230" height="26" as="geometry" />
        </mxCell>
        <mxCell id="SyAGUbuVpS4v2hhUYQQe-128" value="Transaction Status [ ]" style="text;strokeColor=none;fillColor=none;align=left;verticalAlign=top;spacingLeft=4;spacingRight=4;overflow=hidden;rotatable=0;points=[[0,0.5],[1,0.5]];portConstraint=eastwest;whiteSpace=wrap;html=1;" vertex="1" parent="SyAGUbuVpS4v2hhUYQQe-122">
          <mxGeometry y="156" width="230" height="26" as="geometry" />
        </mxCell>
        <mxCell id="SyAGUbuVpS4v2hhUYQQe-145" value="Transaction Type [ ]&amp;nbsp;" style="text;strokeColor=none;fillColor=none;align=left;verticalAlign=top;spacingLeft=4;spacingRight=4;overflow=hidden;rotatable=0;points=[[0,0.5],[1,0.5]];portConstraint=eastwest;whiteSpace=wrap;html=1;" vertex="1" parent="SyAGUbuVpS4v2hhUYQQe-122">
          <mxGeometry y="182" width="230" height="26" as="geometry" />
        </mxCell>
        <mxCell id="SyAGUbuVpS4v2hhUYQQe-147" value="Transaction Limit (Double)" style="text;strokeColor=none;fillColor=none;align=left;verticalAlign=top;spacingLeft=4;spacingRight=4;overflow=hidden;rotatable=0;points=[[0,0.5],[1,0.5]];portConstraint=eastwest;whiteSpace=wrap;html=1;" vertex="1" parent="SyAGUbuVpS4v2hhUYQQe-122">
          <mxGeometry y="208" width="230" height="26" as="geometry" />
        </mxCell>
        <mxCell id="SyAGUbuVpS4v2hhUYQQe-133" value="" style="endArrow=classic;html=1;rounded=0;exitX=1;exitY=0.5;exitDx=0;exitDy=0;" edge="1" parent="1" source="SyAGUbuVpS4v2hhUYQQe-105">
          <mxGeometry width="50" height="50" relative="1" as="geometry">
            <mxPoint x="250" y="636" as="sourcePoint" />
            <mxPoint x="290" y="590" as="targetPoint" />
          </mxGeometry>
        </mxCell>
        <mxCell id="SyAGUbuVpS4v2hhUYQQe-134" value="" style="endArrow=classic;html=1;rounded=0;exitX=1;exitY=0.5;exitDx=0;exitDy=0;" edge="1" parent="1" source="SyAGUbuVpS4v2hhUYQQe-107">
          <mxGeometry width="50" height="50" relative="1" as="geometry">
            <mxPoint x="240" y="680" as="sourcePoint" />
            <mxPoint x="290" y="733" as="targetPoint" />
          </mxGeometry>
        </mxCell>
        <mxCell id="SyAGUbuVpS4v2hhUYQQe-135" value="Enum Transaction Status" style="swimlane;fontStyle=0;childLayout=stackLayout;horizontal=1;startSize=40;fillColor=none;horizontalStack=0;resizeParent=1;resizeParentMax=0;resizeLast=0;collapsible=1;marginBottom=0;whiteSpace=wrap;html=1;" vertex="1" parent="1">
          <mxGeometry x="720" y="790" width="100" height="144" as="geometry" />
        </mxCell>
        <mxCell id="SyAGUbuVpS4v2hhUYQQe-136" value="Success" style="text;strokeColor=none;fillColor=none;align=left;verticalAlign=top;spacingLeft=4;spacingRight=4;overflow=hidden;rotatable=0;points=[[0,0.5],[1,0.5]];portConstraint=eastwest;whiteSpace=wrap;html=1;" vertex="1" parent="SyAGUbuVpS4v2hhUYQQe-135">
          <mxGeometry y="40" width="100" height="26" as="geometry" />
        </mxCell>
        <mxCell id="SyAGUbuVpS4v2hhUYQQe-137" value="Fail" style="text;strokeColor=none;fillColor=none;align=left;verticalAlign=top;spacingLeft=4;spacingRight=4;overflow=hidden;rotatable=0;points=[[0,0.5],[1,0.5]];portConstraint=eastwest;whiteSpace=wrap;html=1;" vertex="1" parent="SyAGUbuVpS4v2hhUYQQe-135">
          <mxGeometry y="66" width="100" height="26" as="geometry" />
        </mxCell>
        <mxCell id="SyAGUbuVpS4v2hhUYQQe-138" value="In Progress" style="text;strokeColor=none;fillColor=none;align=left;verticalAlign=top;spacingLeft=4;spacingRight=4;overflow=hidden;rotatable=0;points=[[0,0.5],[1,0.5]];portConstraint=eastwest;whiteSpace=wrap;html=1;" vertex="1" parent="SyAGUbuVpS4v2hhUYQQe-135">
          <mxGeometry y="92" width="100" height="26" as="geometry" />
        </mxCell>
        <mxCell id="SyAGUbuVpS4v2hhUYQQe-139" value="Refund" style="text;strokeColor=none;fillColor=none;align=left;verticalAlign=top;spacingLeft=4;spacingRight=4;overflow=hidden;rotatable=0;points=[[0,0.5],[1,0.5]];portConstraint=eastwest;whiteSpace=wrap;html=1;" vertex="1" parent="SyAGUbuVpS4v2hhUYQQe-135">
          <mxGeometry y="118" width="100" height="26" as="geometry" />
        </mxCell>
        <mxCell id="SyAGUbuVpS4v2hhUYQQe-140" value="" style="endArrow=classic;html=1;rounded=0;" edge="1" parent="1">
          <mxGeometry width="50" height="50" relative="1" as="geometry">
            <mxPoint x="720" y="760" as="sourcePoint" />
            <mxPoint x="760" y="780" as="targetPoint" />
          </mxGeometry>
        </mxCell>
        <mxCell id="SyAGUbuVpS4v2hhUYQQe-141" value="Enum Transaction Type" style="swimlane;fontStyle=0;childLayout=stackLayout;horizontal=1;startSize=26;fillColor=none;horizontalStack=0;resizeParent=1;resizeParentMax=0;resizeLast=0;collapsible=1;marginBottom=0;whiteSpace=wrap;html=1;" vertex="1" parent="1">
          <mxGeometry x="560" y="790" width="140" height="78" as="geometry" />
        </mxCell>
        <mxCell id="SyAGUbuVpS4v2hhUYQQe-142" value="Withdraw" style="text;strokeColor=none;fillColor=none;align=left;verticalAlign=top;spacingLeft=4;spacingRight=4;overflow=hidden;rotatable=0;points=[[0,0.5],[1,0.5]];portConstraint=eastwest;whiteSpace=wrap;html=1;" vertex="1" parent="SyAGUbuVpS4v2hhUYQQe-141">
          <mxGeometry y="26" width="140" height="26" as="geometry" />
        </mxCell>
        <mxCell id="SyAGUbuVpS4v2hhUYQQe-143" value="Deposit" style="text;strokeColor=none;fillColor=none;align=left;verticalAlign=top;spacingLeft=4;spacingRight=4;overflow=hidden;rotatable=0;points=[[0,0.5],[1,0.5]];portConstraint=eastwest;whiteSpace=wrap;html=1;" vertex="1" parent="SyAGUbuVpS4v2hhUYQQe-141">
          <mxGeometry y="52" width="140" height="26" as="geometry" />
        </mxCell>
        <mxCell id="SyAGUbuVpS4v2hhUYQQe-146" value="" style="endArrow=classic;html=1;rounded=0;" edge="1" parent="1">
          <mxGeometry width="50" height="50" relative="1" as="geometry">
            <mxPoint x="630" y="760" as="sourcePoint" />
            <mxPoint x="610" y="780" as="targetPoint" />
            <Array as="points" />
          </mxGeometry>
        </mxCell>
        <mxCell id="SyAGUbuVpS4v2hhUYQQe-149" value="" style="endArrow=classic;html=1;rounded=0;" edge="1" parent="1">
          <mxGeometry width="50" height="50" relative="1" as="geometry">
            <mxPoint x="530" y="730" as="sourcePoint" />
            <mxPoint x="550" y="670" as="targetPoint" />
          </mxGeometry>
        </mxCell>
        <mxCell id="SyAGUbuVpS4v2hhUYQQe-150" value="" style="endArrow=classic;html=1;rounded=0;exitX=1;exitY=0.5;exitDx=0;exitDy=0;" edge="1" parent="1" source="SyAGUbuVpS4v2hhUYQQe-113">
          <mxGeometry width="50" height="50" relative="1" as="geometry">
            <mxPoint x="540" y="600" as="sourcePoint" />
            <mxPoint x="550" y="640" as="targetPoint" />
          </mxGeometry>
        </mxCell>
        <mxCell id="SyAGUbuVpS4v2hhUYQQe-151" value="Class Refund" style="swimlane;fontStyle=0;childLayout=stackLayout;horizontal=1;startSize=26;fillColor=none;horizontalStack=0;resizeParent=1;resizeParentMax=0;resizeLast=0;collapsible=1;marginBottom=0;whiteSpace=wrap;html=1;" vertex="1" parent="1">
          <mxGeometry x="300" y="820" width="210" height="130" as="geometry" />
        </mxCell>
        <mxCell id="SyAGUbuVpS4v2hhUYQQe-152" value="Add_BankAccount_To _Wallet" style="text;strokeColor=none;fillColor=none;align=left;verticalAlign=top;spacingLeft=4;spacingRight=4;overflow=hidden;rotatable=0;points=[[0,0.5],[1,0.5]];portConstraint=eastwest;whiteSpace=wrap;html=1;" vertex="1" parent="SyAGUbuVpS4v2hhUYQQe-151">
          <mxGeometry y="26" width="210" height="26" as="geometry" />
        </mxCell>
        <mxCell id="SyAGUbuVpS4v2hhUYQQe-153" value="Transaction Id (Long)" style="text;strokeColor=none;fillColor=none;align=left;verticalAlign=top;spacingLeft=4;spacingRight=4;overflow=hidden;rotatable=0;points=[[0,0.5],[1,0.5]];portConstraint=eastwest;whiteSpace=wrap;html=1;" vertex="1" parent="SyAGUbuVpS4v2hhUYQQe-151">
          <mxGeometry y="52" width="210" height="26" as="geometry" />
        </mxCell>
        <mxCell id="SyAGUbuVpS4v2hhUYQQe-154" value="Payment Account Id (Int)" style="text;strokeColor=none;fillColor=none;align=left;verticalAlign=top;spacingLeft=4;spacingRight=4;overflow=hidden;rotatable=0;points=[[0,0.5],[1,0.5]];portConstraint=eastwest;whiteSpace=wrap;html=1;" vertex="1" parent="SyAGUbuVpS4v2hhUYQQe-151">
          <mxGeometry y="78" width="210" height="26" as="geometry" />
        </mxCell>
        <mxCell id="SyAGUbuVpS4v2hhUYQQe-155" value="Transaction Amount (Double)" style="text;strokeColor=none;fillColor=none;align=left;verticalAlign=top;spacingLeft=4;spacingRight=4;overflow=hidden;rotatable=0;points=[[0,0.5],[1,0.5]];portConstraint=eastwest;whiteSpace=wrap;html=1;" vertex="1" parent="SyAGUbuVpS4v2hhUYQQe-151">
          <mxGeometry y="104" width="210" height="26" as="geometry" />
        </mxCell>
        <mxCell id="SyAGUbuVpS4v2hhUYQQe-157" value="&lt;h1&gt;&lt;font face=&quot;Comic Sans MS&quot;&gt;Payments Application&lt;/font&gt;&lt;/h1&gt;&lt;div&gt;&lt;font face=&quot;Comic Sans MS&quot;&gt;Uml Daigram&lt;/font&gt;&lt;/div&gt;" style="text;strokeColor=none;align=center;fillColor=none;html=1;verticalAlign=middle;whiteSpace=wrap;rounded=0;" vertex="1" parent="1">
          <mxGeometry x="470" y="20" width="280" height="90" as="geometry" />
        </mxCell>
        <mxCell id="SyAGUbuVpS4v2hhUYQQe-158" value="Class Statements" style="swimlane;fontStyle=0;childLayout=stackLayout;horizontal=1;startSize=26;fillColor=none;horizontalStack=0;resizeParent=1;resizeParentMax=0;resizeLast=0;collapsible=1;marginBottom=0;whiteSpace=wrap;html=1;" vertex="1" parent="1">
          <mxGeometry x="40" y="820" width="240" height="208" as="geometry" />
        </mxCell>
        <mxCell id="SyAGUbuVpS4v2hhUYQQe-159" value="Transaction Date_time (Local Date Time)" style="text;strokeColor=none;fillColor=none;align=left;verticalAlign=top;spacingLeft=4;spacingRight=4;overflow=hidden;rotatable=0;points=[[0,0.5],[1,0.5]];portConstraint=eastwest;whiteSpace=wrap;html=1;" vertex="1" parent="SyAGUbuVpS4v2hhUYQQe-158">
          <mxGeometry y="26" width="240" height="26" as="geometry" />
        </mxCell>
        <mxCell id="SyAGUbuVpS4v2hhUYQQe-160" value="Transaction Amount (Float)" style="text;strokeColor=none;fillColor=none;align=left;verticalAlign=top;spacingLeft=4;spacingRight=4;overflow=hidden;rotatable=0;points=[[0,0.5],[1,0.5]];portConstraint=eastwest;whiteSpace=wrap;html=1;" vertex="1" parent="SyAGUbuVpS4v2hhUYQQe-158">
          <mxGeometry y="52" width="240" height="26" as="geometry" />
        </mxCell>
        <mxCell id="SyAGUbuVpS4v2hhUYQQe-161" value="Transaction Id (Long)" style="text;strokeColor=none;fillColor=none;align=left;verticalAlign=top;spacingLeft=4;spacingRight=4;overflow=hidden;rotatable=0;points=[[0,0.5],[1,0.5]];portConstraint=eastwest;whiteSpace=wrap;html=1;" vertex="1" parent="SyAGUbuVpS4v2hhUYQQe-158">
          <mxGeometry y="78" width="240" height="26" as="geometry" />
        </mxCell>
        <mxCell id="SyAGUbuVpS4v2hhUYQQe-162" value="Transaction Status [ ]" style="text;strokeColor=none;fillColor=none;align=left;verticalAlign=top;spacingLeft=4;spacingRight=4;overflow=hidden;rotatable=0;points=[[0,0.5],[1,0.5]];portConstraint=eastwest;whiteSpace=wrap;html=1;" vertex="1" parent="SyAGUbuVpS4v2hhUYQQe-158">
          <mxGeometry y="104" width="240" height="26" as="geometry" />
        </mxCell>
        <mxCell id="SyAGUbuVpS4v2hhUYQQe-163" value="Transaction Type [ ]&amp;nbsp;" style="text;strokeColor=none;fillColor=none;align=left;verticalAlign=top;spacingLeft=4;spacingRight=4;overflow=hidden;rotatable=0;points=[[0,0.5],[1,0.5]];portConstraint=eastwest;whiteSpace=wrap;html=1;" vertex="1" parent="SyAGUbuVpS4v2hhUYQQe-158">
          <mxGeometry y="130" width="240" height="26" as="geometry" />
        </mxCell>
        <mxCell id="SyAGUbuVpS4v2hhUYQQe-164" value="Start Date Of Transaction (Local Date)" style="text;strokeColor=none;fillColor=none;align=left;verticalAlign=top;spacingLeft=4;spacingRight=4;overflow=hidden;rotatable=0;points=[[0,0.5],[1,0.5]];portConstraint=eastwest;whiteSpace=wrap;html=1;" vertex="1" parent="SyAGUbuVpS4v2hhUYQQe-158">
          <mxGeometry y="156" width="240" height="26" as="geometry" />
        </mxCell>
        <mxCell id="SyAGUbuVpS4v2hhUYQQe-165" value="End Date Of Transaction (Local Date)" style="text;strokeColor=none;fillColor=none;align=left;verticalAlign=top;spacingLeft=4;spacingRight=4;overflow=hidden;rotatable=0;points=[[0,0.5],[1,0.5]];portConstraint=eastwest;whiteSpace=wrap;html=1;" vertex="1" parent="SyAGUbuVpS4v2hhUYQQe-158">
          <mxGeometry y="182" width="240" height="26" as="geometry" />
        </mxCell>
      </root>
    </mxGraphModel>
  </diagram>
</mxfile>
